<svg width="157" height="171" viewBox="0 0 157 171" fill="none" xmlns="http://www.w3.org/2000/svg">
<path id="Union" fill-rule="evenodd" clip-rule="evenodd" d="M2.14658 4.43981C1.32444 4.54164 0.592259 3.95583 0.511199 3.13136C0.43014 2.30689 1.0309 1.55597 1.85303 1.45413C30.2959 -2.06918 66.2243 4.0556 85.6771 12.4967C97.7502 17.7355 105.498 23.8656 110.643 31.2791C114.677 37.0927 117.052 43.6141 118.709 50.929C124.629 56.8092 130.925 64.2161 137.551 73.4765L137.581 73.5182L137.608 73.5619C147.648 89.9176 151.084 101.651 151.672 112.006C151.965 117.164 151.548 121.93 150.932 126.675C150.701 128.459 150.445 130.219 150.187 131.992L150.187 131.992C149.75 134.991 149.308 138.03 148.97 141.29C148.577 145.076 146.48 151.631 144.561 157.077C143.589 159.835 142.641 162.368 141.936 164.21C141.706 164.811 141.502 165.338 141.332 165.777C141.817 165.443 142.301 165.114 142.78 164.789L142.792 164.78C143.12 164.557 143.446 164.336 143.767 164.116C145.319 163.056 146.805 162.009 148.206 160.856C148.743 160.415 149.389 159.912 150.039 159.406L150.04 159.404C150.398 159.126 150.756 158.847 151.098 158.577C152.109 157.778 153.024 157.021 153.677 156.366C154.313 155.729 155.264 155.637 155.801 156.161C156.337 156.684 156.257 157.625 155.622 158.262C154.791 159.095 153.715 159.976 152.698 160.779C152.301 161.093 151.917 161.392 151.55 161.677C150.935 162.156 150.368 162.598 149.867 163.01C148.326 164.278 146.721 165.405 145.152 166.477C144.808 166.712 144.467 166.944 144.128 167.175L144.122 167.179C142.9 168.009 141.712 168.816 140.546 169.675C140.006 170.073 139.367 170.482 138.68 170.784C138.256 170.971 137.801 171.017 137.391 170.887C137.019 170.769 136.785 170.539 136.648 170.361C136.388 170.023 136.275 169.608 136.218 169.339C136.108 168.818 136.084 168.207 136.114 167.846C136.244 164.007 135.94 155.936 135.645 151.579C135.59 150.779 136.22 149.968 137.05 149.766C137.881 149.565 138.598 150.05 138.652 150.85C138.865 153.996 139.085 159.097 139.143 163.201C139.145 163.198 139.146 163.194 139.147 163.19C139.846 161.366 140.784 158.86 141.744 156.134C143.691 150.611 145.645 144.41 145.994 141.051C146.338 137.744 146.798 134.575 147.242 131.523L147.242 131.523C147.498 129.764 147.747 128.044 147.966 126.358C148.571 121.695 148.963 117.14 148.685 112.251C148.133 102.523 144.918 91.2708 135.078 75.2311C129.738 67.7703 124.638 61.5615 119.806 56.4149C119.845 56.6358 119.884 56.8573 119.922 57.0795L119.941 57.1895L119.944 57.3014C120.373 76.7339 117.72 87.8141 113.222 94.1524C108.613 100.646 102.293 101.871 96.5037 102.291C90.3068 102.741 82.6273 99.4706 76.0067 94.1081C69.3588 88.7234 63.5157 81.0241 61.0904 72.1916C58.4725 65.0515 57.7672 57.2827 58.7043 50.4913C59.6371 43.7304 62.2403 37.6805 66.5054 34.3128C70.799 30.9226 79.6557 28.1451 91.8698 32.5247C98.506 34.9043 106.133 39.3916 114.602 47.035C113.096 41.8623 111.086 37.2351 108.175 33.0412C103.415 26.1814 96.1544 20.3488 84.4352 15.2635C65.4598 7.02955 30.0608 0.981991 2.14658 4.43981ZM116.955 57.5542C116.654 55.8166 116.331 54.1323 115.976 52.4985C106.338 43.0565 97.8678 37.8941 90.8039 35.3612C79.4014 31.2726 71.6638 34.0187 68.3169 36.6614C64.9415 39.3266 62.5469 44.458 61.6673 50.8325C60.7947 57.1575 61.4558 64.4535 63.9209 71.146L63.9431 71.2061L63.96 71.2681C66.1787 79.407 71.615 86.6418 77.9178 91.747C84.2635 96.8869 91.2252 99.6636 96.3614 99.2906C101.906 98.8879 107.021 97.7712 110.801 92.4451C114.683 86.9744 117.369 76.7855 116.955 57.5542Z" fill="#010E87"/>
</svg>
